# AST/ASF file generated using VICON BodyLanguage
# -----------------------------------------------
:version 1.10
:name VICON
:units
  mass 1.0
  length 0.45
  angle deg
:documentation
   .ast/.asf automatically generated from VICON data using
   VICON BodyBuilder and BodyLanguage model FoxedUp or BRILLIANT.MOD
:root
   order TX TY TZ RX RY RZ
   axis XYZ
   position 0 0 0  
   orientation 0 0 0 
:bonedata
  begin
     id 1 
     name lhipjoint
     direction 0.570549 -0.739093 0.358072 
     length 2.41801 
     axis 0 0 0  XYZ
  end
  begin
     id 2 
     name lfemur
     direction 0.34202 -0.939693 0  
     length 7.44434  
     axis 0 0 20  XYZ
    dof rx ry rz
    limits (-160.0 20.0)
           (-70.0 70.0)
           (-60.0 70.0)
  end
  begin
     id 3 
     name ltibia
     direction 0.34202 -0.939693 0   
     length 7.60047   
     axis 0 0 20   XYZ
    dof rx
    limits (-10.0 170.0)
  end
  begin
     id 4 
     name lfoot
     direction 0.0909041 -0.249757 0.964032   
     length 2.03437   
     axis -90 7.62852e-016 20   XYZ
    dof rx rz
    limits (-45.0 90.0)
           (-70.0 20.0)
  end
  begin
     id 5 
     name ltoes
     direction 1.53547e-011 -4.2174e-011 1   
     length 1.02054   
     axis -90 7.62852e-016 20   XYZ
    dof rx
    limits (-90.0 20.0)
  end
  begin
     id 6 
     name rhipjoint
     direction -0.558096 -0.746754 0.361784   
     length 2.3932  
     axis 0 0 0  XYZ 
  end
  begin
     id 7 
     name rfemur
     direction -0.34202 -0.939693 0   
     length 7.3886   
     axis 0 0 -20   XYZ
    dof rx ry rz
    limits (-160.0 20.0)
           (-70.0 70.0)
           (-70.0 60.0)
  end
  begin
     id 8 
     name rtibia
     direction -0.34202 -0.939693 0   
     length 7.4839   
     axis 0 0 -20   XYZ
    dof rx
    limits (-10.0 170.0)
 end
 begin
     id 9 
     name rfoot
     direction -0.114619 -0.314914 0.942174   
     length 2.25127  
     axis -90 -7.62852e-016 -20   XYZ
    dof rx rz
    limits (-45.0 90.0)
           (-20.0 70.0)
  end
  begin
     id 10 
     name rtoes
     direction -1.53518e-011 -4.21881e-011 1   
     length 1.11821   
     axis -90 -7.62852e-016 -20   XYZ
    dof rx
    limits (-90.0 20.0)
  end
  begin
     id 11 
     name lowerback
     direction -0.00902269 0.996426 -0.0839821   
     length 2.25052   
     axis 0 0 0   XYZ
    dof rx ry rz
    limits (-20.0 45.0)
           (-30.0 30.0)
           (-30.0 30.0)
  end
  begin
     id 12 
     name upperback
     direction 0.0370973 0.999169 -0.0168941   
     length 2.24876   
     axis 0 0 0   XYZ
    dof rx ry rz
    limits (-20.0 45.0)
           (-30.0 30.0)
           (-30.0 30.0)
  end
  begin
     id 13 
     name thorax
     direction 0.0402726 0.998931 0.0227027   
     length 2.26408   
     axis 0 0 0   XYZ
    dof rx ry rz
    limits (-20.0 45.0)
           (-30.0 30.0)
           (-30.0 30.0)
  end
  begin
     id 14 
     name lowerneck
     direction -0.0733697 0.98508 0.155675   
     length 1.58204   
     axis 0 0 0   XYZ
    dof rx ry rz
    limits (-20.0 45.0)
           (-30.0 30.0)
           (-30.0 30.0)
  end
  begin
     id 15 
     name upperneck
     direction 0.0426554 0.993501 -0.105526   
     length 1.61222   
     axis 0 0 0   XYZ
    dof rx ry rz
    limits (-20.0 45.0)
           (-30.0 30.0)
           (-30.0 30.0)
  end
  begin
     id 16
     name head
     direction 0.020792 0.998384 -0.0528868  
     length 1.61527  
     axis 0 0 0   XYZ
    dof rx ry rz
    limits (-20.0 45.0)
           (-30.0 30.0)
           (-30.0 30.0)
  end
  begin
     id 17 
     name lclavicle
     direction 0.967109 0.155462 -0.201325  
     length 3.59357  
     axis 0 0 0   XYZ
    dof ry rz
    limits (-20.0 10.0)
           (0.0 20.0)
  end
  begin
     id 18 
     name lhumerus
     direction 1 -4.48968e-011 2.38195e-027   
     length 5.38154   
     axis 180 -30 -90   XYZ
    dof rx ry rz
    limits (-60.0 90.0)
           (-90.0 90.0)
           (-90.0 90.0)
  end
  begin
     id 19
     name lradius
     direction 1 -4.48961e-011 4.85371e-027   
     length 3.33312   
     axis 180 -30 -90   XYZ
    dof rx
    limits (-10.0 170.0)
  end
  begin
     id 20
     name lwrist
     direction 1 -4.48961e-011 4.76515e-027   
     length 1.66656   
     axis -3.27502e-015 90 90   XYZ
    dof ry
    limits (-180.0 0.0)
 end
  begin
     id 21 
     name lhand
     direction 1 -4.48951e-011 9.53074e-027   
     length 0.710789   
     axis -6.08098e-015 90 90   XYZ
    dof rx rz
    limits (-90.0 90.0)
           (-45.0 45.0)
  end
  begin
     id 22 
     name lfingers
     direction 1 -4.48953e-011 1.90613e-026   
     length 0.573057   
     axis -1.21619e-014 90 90   XYZ
    dof rx
    limits (0.0 90.0)
  end
  begin
     id 23
     name lthumb
     direction 0.707107 -6.34973e-011 0.707107   
     length 0.822798   
     axis -90 45 -9.86923e-015   XYZ
    dof rx rz
    limits (-45.0 45.0)
           (-45.0 45.0)
  end
  begin
     id 24 
     name rclavicle
     direction -0.9585 0.265289 -0.104398   
     length 3.42039  
     axis 0 0 0   XYZ 
    dof ry rz
    limits (-10.0 20.0)
           (-20.0 0.0)
  end
  begin
     id 25 
     name rhumerus
     direction -1 -4.48977e-011 2.21478e-027  
     length 5.16954   
     axis 180 30 90   XYZ
    dof rx ry rz
    limits (-90.0 60.0)
           (-90.0 90.0)
           (-90.0 90.0)
  end
  begin
     id 26 
     name rradius
     direction -1 -4.48967e-011 5.63677e-027   
     length 3.38287   
     axis 180 30 90   XYZ
    dof rx
    limits (-10.0 170.0)
  end
  begin
     id 27 
     name rwrist
     direction -1 -4.48967e-011 4.76501e-027   
     length 1.69144   
     axis -3.27502e-015 -90 -90   XYZ
    dof ry
    limits (-180.0 0.0)
  end
  begin
     id 28
     name rhand
     direction -1 -4.48902e-011 9.53292e-027   
     length 0.817967   
     axis -6.08098e-015 -90 -90   XYZ
    dof rx rz
    limits (-90.0 90.0)
           (-45.0 45.0)
  end
  begin
     id 29
     name rfingers
     direction -1 -4.49012e-011 1.90561e-026   
     length 0.659466   
     axis -1.21619e-014 -90 -90   XYZ
    dof rx
    limits (0.0 90.0)
  end
  begin
     id 30
     name rthumb
     direction -0.707107 -6.34944e-011 0.707107   
     length 0.946865   
     axis -90 -45 9.86923e-015   XYZ
    dof rx rz
    limits (-45.0 45.0)
           (-45.0 45.0)
  end
:hierarchy
  begin
    root lhipjoint rhipjoint lowerback
    lhipjoint lfemur
    lfemur ltibia
    ltibia lfoot
    lfoot ltoes
    rhipjoint rfemur
    rfemur rtibia
    rtibia rfoot
    rfoot rtoes
    lowerback upperback
    upperback thorax
    thorax lowerneck lclavicle rclavicle
    lowerneck upperneck
    upperneck head
    lclavicle lhumerus
    lhumerus lradius
    lradius lwrist
    lwrist lhand lthumb
    lhand lfingers
    rclavicle rhumerus
    rhumerus rradius
    rradius rwrist
    rwrist rhand rthumb
    rhand rfingers
  end

#!OML:ASF F:\twosubjects\two\wednesday\Session 1\Justin1.ASF
:FULLY-SPECIFIED
:DEGREES
530
root 11.4441 16.9358 -13.2319 -905.679 -34.0825 -518.511
lowerback 11.2237 5.15023 9.03648
upperback 0.820374 7.88786 3.15857
thorax -4.62753 3.61495 -2.8224
lowerneck -24.144 4.97494 -5.13416
upperneck 6.00022 7.97589 -0.324472
head 5.41282 3.6216 1.56479
rclavicle -1.56841e-013 -5.56597e-015
rhumerus 7.42324 7.40751 -49.1148
rradius 59.5799
rwrist -26.3218
rhand -18.4849 20.3594
rfingers 7.12502
rthumb 7.80235 -9.47659
lclavicle -1.56841e-013 -5.56597e-015
lhumerus -21.6788 -32.5982 21.9782
lradius 75.8438
lwrist 58.4961
lhand 5.90162 38.8351
lfingers 7.12502
lthumb 31.2296 66.1925
rfemur 7.56446 -2.89672 28.4034
rtibia 18.0361
rfoot -10.0616 0.23552
rtoes -29.8957
lfemur -49.7347 10.9812 -9.41493
ltibia 37.5495
lfoot -14.9987 -0.271048
ltoes -3.34662
531
root 11.4186 16.7982 -13.3596 -906.048 -34.9864 -518.779
lowerback 11.6462 5.26533 8.16979
upperback 0.902324 7.98268 3.06359
thorax -4.86917 3.67547 -2.5119
lowerneck -24.7245 4.99097 -5.39683
upperneck 7.34787 8.08556 0.530481
head 5.88416 3.71935 1.93927
rclavicle -7.03698e-014 -6.91771e-014
rhumerus 6.81557 7.50126 -49.5386
rradius 60.6886
rwrist -25.8562
rhand -18.3013 20.6952
rfingers 7.12502
rthumb 7.97954 -9.13413
lclavicle -7.03698e-014 -6.91771e-014
lhumerus -21.6377 -32.5847 21.4087
lradius 75.9487
lwrist 58.7378
lhand 5.83863 39.0157
lfingers 7.12502
lthumb 31.1695 66.3847
rfemur 9.05685 -3.41024 28.0869
rtibia 17.4728
rfoot -11.4566 0.474549
rtoes -30.7082
lfemur -49.9396 11.046 -10.0392
ltibia 37.5153
lfoot -14.9644 1.49102
ltoes -3.57241
532
root 11.4175 16.6079 -13.5185 -908.744 -35.2871 -516.224
lowerback 12.8009 5.37041 9.179
upperback 0.99745 8.35295 3.81309
thorax -5.34409 3.7792 -2.43576
lowerneck -25.2433 4.88635 -6.04094
upperneck 8.94527 8.09871 1.7221
head 6.40548 3.78909 2.48266
rclavicle -4.03533e-014 -1.19271e-014
rhumerus 5.61634 7.707 -50.154
rradius 62.0086
rwrist -25.0989
rhand -18.1196 21.4125
rfingers 7.12502
rthumb 8.15488 -8.41017
lclavicle -4.03533e-014 -1.19271e-014
lhumerus -21.8621 -32.6266 21.3634
lradius 76.045
lwrist 58.7062
lhand 5.76596 39.0461
lfingers 7.12502
lthumb 31.1003 66.4285
rfemur 11.5533 -3.14903 30.7946
rtibia 16.3609
rfoot -12.9675 -0.556853
rtoes -29.8299
lfemur -49.7739 11.6338 -7.88583
ltibia 37.9229
lfoot -15.1418 3.68254
ltoes -6.43771
533
root 11.3513 16.4665 -13.6694 -908.884 -36.6103 -516.39
lowerback 12.5958 5.27932 8.27039
upperback 1.05294 8.09755 3.8868
thorax -5.33274 3.68705 -1.81812
lowerneck -26.3249 4.85487 -7.03207
upperneck 10.6684 8.33009 2.94778
head 7.03253 3.9446 3.14898
rclavicle 2.82274e-014 -1.98785e-014
rhumerus 4.75832 8.01958 -50.8817
rradius 63.2538
rwrist -24.3241
rhand -17.7625 21.9788
rfingers 7.12502
rthumb 8.49951 -7.83013
lclavicle 2.82274e-014 -1.98785e-014
lhumerus -22.6363 -32.1804 21.7637
lradius 76.0601
lwrist 58.5361
lhand 5.8449 39.8905
lfingers 7.12502
lthumb 31.1755 67.2584
rfemur 13.0497 -4.35875 30.5226
rtibia 15.2264
rfoot -14.615 -1.15058
rtoes -29.6977
lfemur -50.4434 11.5644 -8.8798
ltibia 38.2572
lfoot -15.4504 5.82427
ltoes -8.11292
534
root 11.3001 16.2966 -13.8482 -911.576 -36.6325 -513.291
lowerback 12.9459 5.13884 9.7237
upperback 1.34259 8.07622 4.80212
thorax -5.15076 3.61505 -1.64863
lowerneck -27.5049 5.0857 -7.64152
upperneck 12.1286 8.84676 3.73875
head 7.6081 4.20833 3.65956
rclavicle -6.16232e-014 -7.4743e-014
rhumerus 4.63785 8.51318 -51.8174
rradius 64.1263
rwrist -23.6206
rhand -17.1088 22.241
rfingers 7.12502
rthumb 9.1304 -7.54135
lclavicle -6.16232e-014 -7.4743e-014
lhumerus -23.8138 -31.4531 22.0181
lradius 75.9691
lwrist 58.9013
lhand 6.14667 41.6327
lfingers 7.12502
lthumb 31.4631 68.9448
rfemur 15.1815 -4.59968 33.6334
rtibia 14.0067
rfoot -15.7589 -3.0289
rtoes -31.1609
lfemur -50.5171 12.4003 -6.38386
ltibia 38.8533
lfoot -15.3878 7.01446
ltoes -4.29223
535
root 11.2215 16.1776 -14.0093 -911.864 -37.4111 -512.94
lowerback 12.4161 5.07061 9.00338
upperback 1.53632 7.81004 4.9522
thorax -4.79163 3.52666 -1.01215
lowerneck -28.7537 5.24768 -7.99022
upperneck 13.4865 9.20136 4.40166
head 8.18965 4.39259 4.08332
rclavicle -1.78906e-015 -4.37326e-014
rhumerus 4.42399 8.94804 -52.7996
rradius 64.9448
rwrist -23.1775
rhand -16.7209 22.5924
rfingers 7.12502
rthumb 9.50461 -7.1732
lclavicle -1.78906e-015 -4.37326e-014
lhumerus -24.8242 -30.6511 22.1659
lradius 76.0715
lwrist 59.3885
lhand 6.35916 43.0839
lfingers 7.12502
lthumb 31.6655 70.3564
rfemur 16.7361 -5.3155 34.0319
rtibia 12.43
rfoot -16.3923 -4.46123
rtoes -32.0774
lfemur -51.2459 12.5748 -6.63727
ltibia 39.688
lfoot -15.3373 8.54784
ltoes 3.05516
536
root 11.1067 16.098 -14.1407 -909.592 -39.4812 -514.998
lowerback 10.9568 5.06003 6.82371
upperback 1.24921 7.46972 4.13032
thorax -4.4837 3.46778 -0.536452
lowerneck -29.5213 5.30246 -7.72916
upperneck 14.4607 9.18929 4.74027
head 8.64108 4.41167 4.23405
rclavicle 1.25234e-014 -4.21423e-014
rhumerus 3.03316 8.81439 -54.0089
rradius 65.8105
rwrist -22.8207
rhand -16.8756 22.9242
rfingers 7.12502
rthumb 9.35537 -6.84817
lclavicle 1.25234e-014 -4.21423e-014
lhumerus -24.7973 -30.2379 21.9013
lradius 76.2968
lwrist 59.7057
lhand 6.59895 43.3763
lfingers 7.12502
lthumb 31.8939 70.6035
rfemur 17.3097 -7.09816 31.7928
rtibia 10.4771
rfoot -16.8509 -4.85311
rtoes -31.9126
lfemur -53.2991 11.9471 -9.90918
ltibia 40.868
lfoot -14.3664 10.6856
ltoes 7.84248
537
root 11.055 15.9439 -14.3164 -911.915 -39.2638 -511.244
lowerback 11.012 5.51904 8.92566
upperback 0.753589 8.35782 4.56392
thorax -4.76106 3.81999 -1.3457
lowerneck -29.3099 5.22283 -7.45387
upperneck 14.9119 8.85097 5.31047
head 8.77264 4.3319 4.35845
rclavicle 1.12313e-013 3.4191e-014
rhumerus 0.478238 8.23053 -55.4478
rradius 66.6993
rwrist -22.2643
rhand -17.0862 22.9666
rfingers 7.12502
rthumb 9.15212 -6.81476
lclavicle 1.12313e-013 3.4191e-014
lhumerus -23.9143 -30.4736 21.3444
lradius 76.1216
lwrist 59.6435
lhand 6.8917 42.9159
lfingers 7.12502
lthumb 32.1726 70.0871
rfemur 17.9334 -6.31988 35.7171
rtibia 10.0837
rfoot -17.603 -6.8943
rtoes -32.0708
lfemur -54.8834 13.2378 -7.45075
ltibia 42.4726
lfoot -10.4403 12.6251
ltoes 10.9705
538
root 10.9622 15.8549 -14.4757 -912.282 -39.1655 -510.987
lowerback 11.3727 6.09076 8.59301
upperback 0.499959 9.16222 4.30918
thorax -5.17886 4.20732 -1.58921
lowerneck -29.4423 4.79418 -8.12035
upperneck 15.6501 8.24025 6.76942
head 8.99873 4.17406 4.92964
rclavicle -9.18385e-014 -1.27222e-014
rhumerus -1.93354 7.66422 -56.9315
rradius 67.5061
rwrist -21.7418
rhand -17.0865 23.3836
rfingers 7.12502
rthumb 9.15189 -6.39784
lclavicle -9.18385e-014 -1.27222e-014
lhumerus -23.3284 -30.7077 21.1664
lradius 75.534
lwrist 59.6057
lhand 7.0603 43.7247
lfingers 7.12502
lthumb 32.3331 70.8633
rfemur 18.3154 -5.70396 36.3177
rtibia 11.0989
rfoot -18.5063 -8.24252
rtoes -33.5191
lfemur -55.7075 14.48 -7.85883
ltibia 44.4394
lfoot -5.28683 14.376
ltoes 14.3664
539
root 10.8598 15.7971 -14.6192 -910.741 -39.9013 -512.394
lowerback 10.7385 6.43358 6.7227
upperback 0.258353 9.38722 3.724
thorax -5.26174 4.39236 -1.18155
lowerneck -29.9149 4.82388 -7.33702
upperneck 15.9908 8.18778 5.92306
head 9.27441 4.07792 4.54277
rclavicle 6.87795e-014 2.62396e-014
rhumerus -3.58603 7.41823 -58.4323
rradius 67.9746
rwrist -21.564
rhand -17.171 23.6649
rfingers 7.12502
rthumb 9.07037 -6.12007
lclavicle 6.87795e-014 2.62396e-014
lhumerus -23.6051 -30.7344 21.4728
lradius 75.3342
lwrist 60.6962
lhand 7.25208 46.1938
lfingers 7.12502
lthumb 32.5156 73.295
rfemur 17.0614 -5.54681 35.2928
rtibia 13.4271
rfoot -19.5375 -9.22283
rtoes -35.4397
lfemur -57.201 14.7156 -9.75428
ltibia 46.3964
lfoot -0.801432 15.6463
ltoes 22.7615
540
root 10.7598 15.7098 -14.7629 -910.532 -40.1629 -512.277
lowerback 10.5935 6.69222 6.03593
upperback 0.0582578 9.66774 3.47719
thorax -5.44591 4.55023 -1.10709
lowerneck -30.6364 4.85195 -7.1671
upperneck 16.4953 8.15095 6.15393
head 9.56832 4.08815 4.64845
rclavicle -2.74323e-014 -9.54166e-015
rhumerus -5.02051 7.3411 -60.0763
rradius 68.068
rwrist -21.4788
rhand -17.2802 23.6021
rfingers 7.12502
rthumb 8.96497 -6.18741
lclavicle -2.74323e-014 -9.54166e-015
lhumerus -23.9389 -30.1522 21.4196
lradius 75.2747
lwrist 60.5667
lhand 7.38529 46.813
lfingers 7.12502
lthumb 32.6424 73.888
rfemur 15.9214 -5.36883 35.5
rtibia 16.4003
rfoot -20.6331 -9.56816
rtoes -36.1876
lfemur -58.4102 15.1154 -9.95839
ltibia 48.5752
lfoot -2.0707 15.0661
ltoes 22.3758
541
root 10.5194 15.7184 -14.769 -904.082 -43.935 -519.621
lowerback 9.51922 6.20179 1.84714
upperback -0.541522 8.49539 1.01807
thorax -5.75842 4.12123 -1.16546
lowerneck -30.4518 4.74309 -7.6093
upperneck 16.2331 7.99368 6.92826
head 9.40187 4.09763 4.94829
rclavicle 6.20208e-014 1.19271e-014
rhumerus -7.03583 7.126 -61.7547
rradius 68.0289
rwrist -21.1822
rhand -18.0816 24.0222
rfingers 7.12502
rthumb 8.1916 -5.79897
lclavicle 6.20208e-014 1.19271e-014
lhumerus -24.3124 -29.7042 21.8494
lradius 75.0469
lwrist 60.3758
lhand 7.73437 46.8794
lfingers 7.12502
lthumb 32.9744 73.885
rfemur 13.5566 -10.0572 27.1398
rtibia 19.7064
rfoot -21.8543 -5.75878
rtoes -36.0682
lfemur -60.28 11.9364 -17.8306
ltibia 50.4193
lfoot -4.59691 13.022
ltoes 22.6965
542
root 10.4201 15.638 -14.9539 -905.599 -43.6406 -517.599
lowerback 9.15326 6.79371 2.30225
upperback -0.319943 9.3179 1.25947
thorax -5.2697 4.5249 -1.20433
lowerneck -30.3084 4.53091 -7.71895
upperneck 15.204 7.75783 6.82464
head 9.03528 3.99222 4.83848
rclavicle -4.92986e-014 -7.95139e-016
rhumerus -8.55476 6.44152 -62.9989
rradius 67.8788
rwrist -21.327
rhand -18.7213 24.268
rfingers 7.12502
rthumb 7.57414 -5.57636
lclavicle -4.92986e-014 -7.95139e-016
lhumerus -24.0365 -28.9707 22.1961
lradius 74.8748
lwrist 60.519
lhand 7.99762 46.9158
lfingers 7.12502
lthumb 33.2248 73.8683
rfemur 12.8126 -8.30291 29.4311
rtibia 22.7267
rfoot -22.1794 -6.38435
rtoes -35.6617
lfemur -61.0252 12.6103 -15.918
ltibia 52.6661
lfoot -5.50648 9.61389
ltoes 24.4254
